<?xml version="1.0" encoding="utf-8"?>
<!-- Generator: Adobe Illustrator 17.0.0, SVG Export Plug-In . SVG Version: 6.00 Build 0)  -->
<!DOCTYPE svg PUBLIC "-//W3C//DTD SVG 1.1//EN" "http://www.w3.org/Graphics/SVG/1.1/DTD/svg11.dtd">
<svg version="1.1" id="Layer_1" xmlns="http://www.w3.org/2000/svg" xmlns:xlink="http://www.w3.org/1999/xlink" x="0px" y="0px"
	 width="330.133px" height="74.789px" viewBox="0 0 330.133 74.789" enable-background="new 0 0 330.133 74.789"
	 xml:space="preserve">
<g>
	<g>
		<path d="M50.665,73.466L15.642,25.554v47.912H0V0h16.078l34.037,46.151V0h15.638v73.466H50.665z"/>
		<path d="M83.376,36.789c0-22.141,16.19-38,38.44-38c22.137,0,38.323,15.859,38.323,38c0,22.137-16.186,38-38.323,38
			C99.567,74.789,83.376,58.927,83.376,36.789z M144.064,36.789c0-13.769-8.701-24.121-22.247-24.121
			c-13.662,0-22.36,10.352-22.36,24.121c0,13.657,8.697,24.123,22.36,24.123C135.362,60.912,144.064,50.446,144.064,36.789z"/>
		<path d="M262.173,73.466V0h28.969c23.018,0,38.99,14.648,38.99,36.679c0,22.247-15.971,36.787-38.88,36.787H262.173z
			 M314.161,36.679c0-12.888-7.928-22.91-22.908-22.91h-13.438v45.93h13.327C305.683,59.699,314.161,49.237,314.161,36.679z"/>
		<path d="M227.426,44.961c0,0-0.006,0.002-0.008,0.004l0.008-0.044c8.202-3.759,12.978-11.572,12.978-21.238
			C240.404,10.023,230.931,0,215.62,0h-17.987h-19.864v73.466h15.638V47.362h4.226l0,0h14.261l14.424,26.104h18.063L227.426,44.961z
			 M197.633,33.593v0.002h-4.226V13.769h4.226h15.783c6.172,0,10.904,3.744,10.904,9.804c0,0.038-0.002,0.07-0.002,0.11
			c0,0.036,0.002,0.072,0.002,0.108c0,6.057-4.732,9.802-10.904,9.802H197.633z"/>
	</g>
</g>
<g>
	<g>
		<path d="M-194.711,37.338l-17.511-23.956v23.956h-7.821V0.605h8.039l17.018,23.076V0.605h7.819v36.733H-194.711z"/>
		<path d="M-178.356,19c0-11.071,8.095-19,19.22-19c11.069,0,19.162,7.929,19.162,19c0,11.069-8.093,19-19.162,19
			C-170.261,38-178.356,30.069-178.356,19z M-148.012,19c0-6.884-4.351-12.06-11.124-12.06c-6.831,0-11.18,5.176-11.18,12.06
			c0,6.828,4.349,12.061,11.18,12.061C-152.363,31.061-148.012,25.828-148.012,19z"/>
		<path d="M-88.957,37.338V0.605h14.485c11.509,0,19.495,7.324,19.495,18.34c0,11.124-7.986,18.394-19.44,18.394H-88.957z
			 M-62.963,18.945c0-6.444-3.964-11.455-11.454-11.455h-6.719v22.965h6.664C-67.203,30.455-62.963,25.224-62.963,18.945z"/>
		<path d="M-106.331,23.086c0,0-0.003,0.001-0.004,0.002l0.004-0.022c4.101-1.879,6.489-5.786,6.489-10.619
			c0-6.83-4.736-11.842-12.392-11.842h-8.994h-9.932v36.733h7.819V24.286h2.113l0,0h7.13l7.212,13.052h9.032L-106.331,23.086z
			 M-121.227,17.402v0.001h-2.113V7.49h2.113h7.891c3.086,0,5.452,1.872,5.452,4.902c0,0.019-0.001,0.035-0.001,0.055
			c0,0.018,0.001,0.036,0.001,0.054c0,3.029-2.366,4.901-5.452,4.901H-121.227z"/>
	</g>
</g>
</svg>
